<svg xmlns="http://www.w3.org/2000/svg" viewBox="0 0 1024 768" version="1.1"><g id="react-group-82" stroke="none" stroke-width="1" fill="#FFFFFF00" fill-rule="evenodd"><g id="react-group-83"><rect id="react-rect-85" x="0" y="0" width="1024" height="768"></rect><path d="M542.372852,149.023671 C546.335667,148.599899 546.901784,153.974948 547.442389,156.425427 C548.969445,155.461483 550.328854,156.382989 550.674476,154.131968 C555.505904,159.194189 559.375176,165.004528 563.665391,170.503859 C567.780062,175.780089 574.212044,179.976579 577.771532,185.523198 C580.792844,190.231973 575.808347,197.381528 575.191814,202.403131 C574.496925,208.061906 575.974173,214.538519 579.839193,218.852623 C581.647486,220.870236 583.857891,222.271896 586.529937,222.813887 C589.187404,223.352847 591.714883,221.794167 594.054669,222.125788 C595.995987,222.401028 596.081026,223.684468 596.758301,225.591137 C597.68644,228.207123 598.869697,230.677002 601.061272,232.514558 C603.511001,234.566729 606.142349,235.159645 608.010777,237.917495 C609.641702,240.323717 610.566197,242.654158 613.095499,244.324994 C616.47033,246.554191 621.884275,247.227739 621.518607,252.433036 C622.098694,251.972283 622.678782,251.51153 623.259476,251.050171 C624.604307,255.373369 626.455119,259.558947 628.431667,263.623881 C629.357984,265.528731 629.833595,266.540569 629.786216,268.660033 C629.754023,270.056237 628.988672,271.112331 629.81598,272.463671 C631.140158,274.626786 634.680208,274.333359 636.296555,276.082402 C637.9536,277.875702 636.233991,280.308599 638.148582,281.871522 C637.341927,282.11948 635.106617,283.924905 635.947288,285.021619 C637.156056,286.598486 637.247169,284.438402 638.094522,284.698485 C640.040699,285.294433 639.630082,287.723087 641.148028,288.383298 C641.460116,288.519124 641.436052,287.063672 641.419713,286.688972 L641.418051,286.675101 L642.590129,288.961974 C652.455502,308.0546 664.018263,326.243046 673.312876,345.611666 L674.417089,347.941699 C691.919928,385.357276 712.727746,421.78769 735.739287,456.105916 C741.167202,464.201226 747.123573,472.242581 752.142694,480.56948 C757.185504,488.937606 763.471097,496.354518 769.049045,504.356466 C774.786745,512.587577 780.039116,521.155766 785.822979,529.349897 C790.436343,535.885316 796.074425,542.841475 796,551.268407 C795.965089,555.013238 795.42084,559.14971 791.810937,561.162474 C791.724075,559.618344 789.387326,561.326162 788.830321,561.705071 C786.418859,563.345595 787.730282,563.164325 785.131127,562.590808 C780.912587,561.659602 777.31058,562.920004 773.408507,560.522269 C765.131787,555.43701 756.974729,550.208675 748.549191,545.356217 C730.338706,534.869234 712.30984,524.130655 695.416852,511.596958 C665.88586,489.686329 633.801269,470.052185 606.662302,445.128473 C579.543379,420.223555 551.083878,395.515063 518.903315,377.300159 C516.745756,376.079164 510.563424,374.247064 511.133185,371.334619 C511.633092,368.782896 517.193425,365.204784 519.143247,363.437553 C525.91174,357.304687 532.960862,351.501017 539.489424,345.105036 C551.541874,333.297632 563.505032,320.266806 573.172747,306.413294 C577.875401,299.673567 580.275322,292.177842 583.020865,284.515396 C585.443868,277.75142 587.684037,269.42452 583.750985,262.732687 C581.929937,259.63291 579.416428,258.375539 575.900067,258.610766 C572.989913,258.805373 573.120508,259.401321 571.967016,256.314275 C570.72484,252.991396 569.714698,249.135621 566.383601,247.211976 C562.932842,245.218613 560.582122,247.34414 557.787377,249.339322 C554.572298,244.696628 550.628312,236.663761 544.146522,236.219377 C537.378636,235.755593 533.534875,244.116443 531.197519,249.145321 C524.286889,264.014915 515.295234,277.905408 505.62509,291.14721 C495.143431,305.500882 484.427308,320.101905 472.878411,333.617734 C470.432933,336.479253 467.657019,340.655131 464.211726,342.390837 C460.67775,344.172617 457.745121,342.499356 454.757824,340.449611 C447.717814,335.620797 440.87157,330.661639 433.542427,326.240834 C425.424244,321.343513 417.078278,316.857839 408.798521,312.244246 C405.146098,310.209051 401.680153,307.757966 397.915965,305.93011 C394.409323,304.226536 390.589859,303.383236 387,301.892457 C400.18286,297.962112 414.068507,303.111028 426.546151,307.194756 C433.022475,309.31422 439.794613,311.520985 446.708887,310.951106 C452.688948,310.458828 458.115648,307.256594 462.845636,303.75972 C471.396303,297.438309 472.067504,287.943157 469.279441,278.346155 C466.071042,267.300205 461.163687,256.676815 457.455989,245.781823 C455.769788,240.826302 454.608399,235.562804 458.446693,231.280831 C461.881659,227.449306 466.326767,226.97764 471.01545,228.486 C482.383336,232.144137 492.467134,235.578567 504.652609,235.231183 C514.180009,234.960187 526.29806,232.256294 532.716679,224.513823 C536.234862,220.270045 536.369102,214.434849 536.383073,209.170745 C536.400688,202.93239 536.007079,196.658267 535.134215,190.482356 C533.57618,179.462476 529.5344,168.428045 534.602721,157.728267 C535.790837,155.218981 539.09946,149.374086 542.372852,149.023671 Z M641.417247,286.63918 L641.418051,286.675101 L641.414686,286.666386 C641.412256,286.586563 641.414179,286.585805 641.417247,286.63918 Z M247.110002,234.913051 C250.08859,230.792295 258.239622,221.197044 264.463012,223.296513 C265.549655,223.663364 266.334991,224.747077 267.051352,225.553547 C267.558977,226.213277 268.062366,226.875412 268.562125,227.541156 C268.872508,228.416185 269.429745,228.674184 270.234442,228.315752 C272.416803,231.338362 275.49657,233.620654 276.751412,237.333063 C277.993549,241.011193 281.328969,244.578142 283.295938,247.951966 C284.817601,250.561418 288.248321,257.527293 287.985736,260.79046 L287.985736,269.118638 C287.675958,272.355946 281.624845,278.146619 279.496937,280.336297 C274.213166,285.77531 268.47379,286.471213 260.643426,285.777204 C254.009822,285.18904 245.418324,282.977712 240.927754,277.705285 C236.61809,272.646354 236.679198,264.805972 237.316905,258.575524 C238.207517,249.875148 242.024078,241.949368 247.110002,234.913051 Z M267.520254,236.293853 C266.305949,234.038022 263.648635,233.480529 261.313805,233.74815 C258.980185,234.015169 256.301695,234.211224 254.161686,235.252238 C252.185641,236.214469 251.185518,237.898976 248.722421,237.333063 C249.697737,239.014563 247.949791,239.985815 247.698096,241.500728 C247.374403,243.446841 248.001824,245.191487 249.287524,246.668512 C251.949073,249.727205 255.924758,249.667667 259.623942,249.965959 C262.751368,250.217943 266.598181,250.735744 268.435672,253.66634 C269.620936,255.555922 268.545789,256.917479 269.101211,258.81548 C269.50961,260.213723 271.218229,261.017186 271.965447,262.21757 C274.468477,258.533426 274.380747,250.640723 272.854243,246.700987 C272.133042,244.840272 270.769293,242.417253 269.6887,240.782663 C269.335359,240.247422 268.500411,239.609342 268.278363,239.167317 C267.894166,238.404147 267.940149,237.072659 267.520254,236.293853 Z" id="react-path-86" fill="#ff5678"></path><g id="react-group-84" transform="translate(195.000051, 47.476101)" fill="#000000"><path d="M364.308616,680.235802 C368.837451,678.465031 374.419474,679.291956 379.167318,679.377375 C385.127908,679.484602 391.104877,679.937139 397.047872,680.402398 C408.460656,681.296568 419.816413,680.918545 431.238904,681.985975 C436.910108,682.515449 442.584953,683.00494 448.260405,683.488373 C453.229079,683.911226 458.999172,685.228854 463.95996,684.280768 C466.008097,683.889417 471.535519,681.962348 470.511451,678.963004 C469.720952,676.648825 463.497673,675.222152 461.470769,674.563641 C456.701691,673.013384 451.777911,671.902336 446.956659,670.519887 C444.480815,669.810489 442.014678,669.046567 439.407792,669.293736 C437.195246,669.502739 434.864398,671.154166 432.622124,670.963943 C429.306641,670.683455 427.598243,666.519751 425.16608,664.683554 C421.294275,661.759329 418.423485,663.321702 415.455021,666.544589 C413.260068,668.927224 411.169464,672.532374 407.568236,672.745618 C402.986621,673.017019 402.095415,669.088974 404.116858,665.757647 C405.979353,662.689241 411.049342,659.543291 411.321133,655.718233 C411.493428,653.300461 407.626477,646.832272 405.401191,645.912053 C401.658608,644.365431 396.369002,648.460678 392.985572,649.717725 C387.07655,651.911954 381.04498,653.854774 375.061944,655.836971 C370.969916,657.191552 364.897698,657.312108 364.124794,662.107061 C363.157752,668.110597 364.335917,674.206822 364.308616,680.235802 M130.117828,587.943096 C131.307519,585.307234 132.557271,583.807865 130.178496,581.361621 C128.848663,579.994317 126.972821,579.321267 125.663615,577.901863 C123.697379,575.768821 120.614859,569.939151 124.831256,568.470678 C128.860796,567.067026 132.255753,572.676182 135.499042,573.908391 C139.61473,575.471976 142.165195,572.850048 142.75367,568.917157 C143.510195,563.863524 142.678443,558.58332 143.281478,553.46729 C143.871774,548.451217 145.623853,544.286302 146.968247,539.484079 C147.879474,536.227872 148.994544,532.949857 144.860049,532.227736 C141.068325,531.56559 136.669926,533.140685 132.824815,533.352112 C126.827826,533.681064 120.759248,533.983967 114.812006,534.882983 C108.17194,535.886803 108.292669,542.676676 106.625524,548.227675 C102.58385,561.68444 97.1638088,574.888585 94.6400377,588.762145 C93.5516614,594.743872 96.4364046,598.840937 99.7937481,603.54502 C103.997404,609.434059 108.370323,615.307952 113.130908,620.76384 C116.309888,624.407156 119.891702,627.800275 124.521244,629.475328 C129.76535,631.372712 131.7692,629.265719 130.559488,624.096984 C128.962111,617.273792 126.551788,610.68323 126.835712,603.576522 C126.939454,600.989125 127.692339,598.208476 125.826204,596.04272 C124.532165,594.540927 122.314765,594.034474 120.626386,593.120918 C117.842351,591.612462 113.528887,586.760563 118.953175,585.716759 C122.63691,585.00736 126.551788,587.484501 130.117828,587.943096 M255.379988,320.668212 C258.69001,324.363628 262.287598,327.899716 265.425931,331.739314 C267.225331,333.941418 268.499957,336.588184 270.431006,338.67458 C274.660143,343.245385 278.873506,338.180848 282.618515,335.220274 C297.347388,323.57608 311.206896,310.95775 325.239912,298.495111 C331.926085,292.557002 339.038752,287.080517 345.61815,281.029728 C352.28309,274.90079 357.832353,267.725626 364.076259,261.194433 C367.075058,258.058781 370.664758,254.947968 372.516332,250.94238 C374.095509,247.526241 374.444348,243.809622 376.243748,240.431648 C379.359635,234.581987 385.073913,227.790903 383.763494,220.715696 C379.905036,224.760662 373.47852,239.255779 366.746239,232.458031 C361.941368,227.606132 366.848768,220.433997 366.635218,214.776981 C362.073016,216.712531 363.258461,224.563169 358.394741,225.952282 C355.764195,226.703481 353.514035,224.322059 352.287337,222.233846 C350.166398,218.623849 350.944156,214.845437 351.907558,211.015533 C352.563981,208.406327 356.753683,199.798431 352.610088,198.736454 C349.018568,197.816235 346.009456,204.42073 344.819158,206.760958 C342.637552,211.052487 340.949174,215.491226 338.554018,219.689461 C334.423769,226.928841 329.666825,233.844721 325.131317,240.834509 C315.789724,255.230274 305.137712,268.742168 294.180541,281.93662 C282.477159,296.030087 269.808557,309.319045 255.379988,320.668212 M359.144592,366.455019 C358.672599,379.135747 347.776096,388.75231 338.348961,395.802678 C326.300988,404.813435 315.186689,415.055189 300.817574,420.183335 C295.285904,422.157657 288.378294,421.588805 286.161501,427.815278 C285.295775,430.249406 286.082027,431.144181 287.020554,433.59406 C288.488709,437.427599 289.372029,441.585245 290.0691,445.619912 C292.438775,459.348079 290.134621,473.327655 281.886257,484.757394 C277.501205,490.833021 271.897948,495.997516 266.104801,500.707051 C260.326215,505.405076 254.860067,510.885195 248.489365,514.77144 C234.901041,523.060076 219.806342,527.818681 204.137728,530.109233 C195.98886,531.300853 187.806624,532.362225 179.576461,532.782654 C175.308497,533.000744 171.033253,533.040727 166.762863,532.853533 C164.854868,532.769932 157.759795,531.157883 156.381427,532.251362 C155.319745,533.092827 154.847145,538.18826 154.634808,539.59373 C154.184048,542.565813 153.828536,545.497308 153.21458,548.443947 C151.982422,554.35843 150.320737,561.050162 152.138337,567.017349 C152.664325,568.742685 153.089605,570.148154 154.688196,570.72791 C155.700737,571.095635 157.495891,570.44924 158.519959,570.343829 C160.836854,570.105748 163.02392,570.013059 165.354162,570.259622 C173.000703,571.068979 180.509528,573.023309 188.23797,572.490805 C204.713463,571.355525 221.205943,570.196013 237.530981,567.618309 C245.47176,566.364291 253.091,563.991349 260.90013,562.158786 C268.342828,560.412248 275.781886,558.648141 282.72893,555.366491 C296.339093,548.937073 308.917908,540.432165 320.154149,530.469082 C332.149949,519.832342 340.090728,507.223705 347.5947,493.153864 C354.186838,480.794212 359.745201,468.283715 359.456424,454.035161 C359.273208,445.017741 357.980988,433.845469 363.194153,425.893056 C365.575962,422.260644 370.380227,418.894181 374.855674,420.815191 C382.979062,424.301604 375.305221,431.205973 372.206928,434.988019 C367.743614,440.437243 368.343617,448.73436 367.88133,455.398225 C367.334108,463.261585 365.566862,470.158684 363.843903,477.763366 C362.157951,485.206296 365.558975,494.035917 365.895073,501.628482 C366.260292,509.861989 366.020049,518.103978 365.928441,526.340515 C365.745224,542.722717 366.505996,559.061301 366.449575,575.440474 C366.419848,583.93569 366.637038,592.472706 366.099523,600.956411 C365.610542,608.691946 364.025905,616.092471 362.639045,623.686853 C361.277664,631.1419 359.293835,640.069055 359.752482,647.647081 C378.3659,640.562181 396.483664,632.192973 415.38404,625.863514 C409.488972,620.723857 409.226888,613.460244 408.751254,606.211171 C408.125165,596.651555 406.551448,587.173722 405.864691,577.614711 C404.508771,558.735983 404.889763,538.87585 406.495634,520.018325 C408.220413,499.772293 411.278059,479.594111 411.907181,459.26266 C412.209912,449.468597 411.452174,439.649695 409.857224,429.985274 C408.512831,421.842638 407.346193,411.596643 403.10007,404.382707 C399.042622,397.489242 391.584757,393.109871 385.360871,388.41427 C376.259522,381.548066 367.829762,373.826465 359.144592,366.455019 M360.271796,101.646977 C362.602037,104.797773 365.23501,107.706247 368.021472,110.459029 C370.896508,113.299653 372.12078,112.672038 375.560631,111.194477 C382.4009,108.255107 382.269858,104.855325 378.451441,98.9614393 C369.595189,85.29143 366.235418,69.0122147 356.864098,55.6214819 C347.630494,42.4282418 334.199906,31.7684818 320.100155,24.1607717 C304.969056,15.9969319 288.571824,13.3992363 271.516956,13.6427703 C262.801452,13.7675663 254.029527,14.3691315 245.368625,15.3456906 C236.943112,16.2949884 229.448847,19.0598863 221.292698,21.1474933 C217.187323,22.1979607 212.952727,23.0697153 208.961407,24.5133507 C205.459068,25.779485 202.310421,27.7350263 198.771681,28.9181652 C191.025645,31.5061678 183.230469,34.3988908 176.242171,38.6316564 C169.408576,42.7711279 163.252637,47.1856352 157.046951,52.2671348 C150.619828,57.5297704 145.038411,63.6459864 138.088334,68.2664677 C131.760706,72.4743953 126.728937,78.1417091 120.992212,83.0723631 C114.997649,88.2235303 109.469619,94.5360275 104.972939,101.045411 C100.57636,107.410614 98.9025414,115.646544 96.2465151,122.824738 C93.1548955,131.179407 90.0881497,140.110803 88.9233322,148.968896 C86.7526465,165.475288 91.6242526,184.767782 97.8184119,200.043177 C103.944623,215.151369 113.873479,227.756978 125.720642,238.818387 C131.496195,244.212483 137.798343,249.108606 144.858835,252.715574 C150.898899,255.801549 158.774763,261.350125 165.349308,257.472967 C168.011401,255.903324 170.171774,254.078031 173.24944,253.371056 C176.61285,252.599259 179.908313,252.914884 182.623187,250.448648 C184.930981,248.353166 186.034524,245.82332 189.064869,244.557792 C192.657603,243.057211 196.90676,242.783992 200.753691,242.796108 C209.39336,242.824581 218.037276,244.987308 226.281999,247.385088 C233.837539,249.582346 240.16092,252.895498 248.187847,250.887857 C254.152683,249.395758 263.719959,245.428941 265.005505,238.590604 C266.155155,232.479235 261.720356,224.578314 259.487182,219.108493 C256.400416,211.551065 253.604248,204.115404 251.665312,196.169654 C250.127996,189.873514 247.71464,179.80078 252.052978,174.04623 C256.315482,168.391638 266.170929,168.460094 272.294107,169.88192 C276.306661,170.81365 279.995856,172.691042 284.010836,173.636705 C288.101044,174.601148 292.332607,175.085187 296.505323,175.557715 C310.963619,177.193391 331.534173,173.496158 330.764301,155.019685 C330.078758,138.55267 321.004709,122.045672 326.318582,105.558665 C328.484414,98.8384607 332.908293,91.0665773 340.275157,89.2927777 C346.118051,87.8854907 354.014542,89.360628 359.169466,92.4169185 C363.305781,94.8698265 367.405089,100.00706 360.271796,101.646977 M69.9173947,175.198473 C55.3426168,178.042125 45.7037527,193.404756 43.0325594,207.028119 C41.8222414,213.20128 41.394535,220.552734 43.7356966,226.52598 C46.4341903,233.412176 54.060711,236.285513 60.790565,237.729754 C68.48382,239.381181 75.3010352,238.735998 81.3999464,233.402483 C84.0808465,231.056802 86.3522405,228.324618 88.2790426,225.339812 C90.2489187,222.287157 92.989273,220.062638 91.0078701,216.650739 C86.0974367,208.197324 81.9071273,199.892331 78.672939,190.592 C77.2296574,186.441624 75.9471449,182.386965 74.9892039,178.113005 C74.2290392,174.718674 73.860787,172.647424 69.9173947,175.198473 M197.564397,267.41727 C194.743961,270.133098 191.503706,272.297037 187.863652,273.756423 C183.870512,275.357568 182.65898,274.5888 182.856757,279.207464 C183.076373,284.30835 183.112774,288.390269 180.787992,293.136153 C179.699616,295.357643 175.679783,298.355776 176.439341,300.854725 C177.52893,304.442307 188.692977,308.068661 191.949613,309.32268 C199.741756,312.324448 208.833398,312.385634 216.188128,308.144993 C224.731336,303.21858 225.487254,294.28779 222.268839,285.645363 C221.925461,284.723327 220.676922,283.164588 220.9839,282.158345 C221.547502,280.312454 223.86925,280.579009 225.200903,281.283561 C228.092926,282.813826 229.301424,287.467021 229.923874,290.371255 C231.586772,298.128599 228.53216,306.53052 222.725666,311.875545 C219.775402,314.591373 216.084993,316.405762 212.321177,317.713697 C210.184465,318.456415 207.943405,319.04344 205.686571,319.270618 C203.863511,319.453571 201.561783,318.879267 199.82123,319.398443 C196.753271,320.312604 196.616162,324.097073 195.848718,326.863183 C194.478844,331.807164 193.906749,337.158853 193.727173,342.273672 C193.435968,350.546557 194.42121,361.086973 199.179974,368.100388 C210.283353,384.464416 231.757248,390.144452 248.522732,398.565759 C257.435405,403.042664 265.698935,408.666966 273.634254,414.678983 C274.418079,415.272673 275.590783,416.437032 276.531737,416.899868 C279.712538,418.464664 276.935177,417.895207 278.97118,416.861096 C280.53883,416.065067 281.880797,414.336097 283.500621,413.434658 C287.231677,411.357956 291.421987,410.237215 295.216743,408.27501 C304.040235,403.71208 311.846332,398.049612 319.677302,392.006699 C327.701196,385.813545 335.828224,380.159559 343.147767,373.110402 C346.234533,370.138925 349.710178,367.689046 352.841232,364.844787 C355.995339,361.979325 351.958518,360.789523 349.287932,358.680712 C340.197502,351.501913 331.221128,344.09533 321.514316,337.75012 C318.275881,335.632828 315.420259,332.778271 312.041681,330.906937 C308.513862,328.953213 306.420224,330.703386 303.641043,333.188402 C300.604024,335.903623 297.708967,338.565534 294.32857,340.8888 C289.86465,343.957812 284.675146,345.435373 280.186959,348.356569 C283.068062,351.372876 290.093973,352.382149 291.113189,356.950531 C292.146964,361.580705 285.252094,365.193731 282.029433,366.98207 C276.338814,370.13953 270.062147,372.056906 263.721172,373.426633 C258.444913,374.566154 250.623043,372.850512 246.394513,376.833079 C245.189049,374.283242 244.058812,372.951075 246.043248,370.512101 C248.024651,368.076761 251.557931,367.657544 254.354706,366.720968 C261.908425,364.189911 269.34809,360.817995 276.656712,357.6569 C275.686638,355.386946 273.262362,353.833054 271.413821,352.354888 C268.775388,350.243654 266.557988,347.904638 264.410356,345.280287 C260.311655,340.272695 256.63702,334.931911 252.734275,329.777715 C251.041649,327.542291 249.49766,325.309896 246.406647,326.547558 C243.678426,327.640431 241.014513,330.474391 238.39246,331.941653 C232.462205,335.261469 227.273914,338.448614 220.746083,340.561059 C218.115537,341.412216 207.345223,343.83544 210.209946,337.251542 C211.059292,335.300241 213.896714,334.496336 215.645154,333.642756 C218.875095,332.065238 222.094723,330.456823 225.20697,328.655156 C231.600119,324.954894 237.237956,320.173874 243.219173,315.869624 C249.817378,311.121923 256.527818,306.513558 262.722584,301.236989 C256.558759,297.153857 249.720916,294.164205 243.346574,290.429412 C236.904285,286.654636 230.413461,283.242737 223.749735,279.889602 C218.443749,277.219815 213.051008,274.373133 208.212769,270.922463 C206.289607,269.550313 199.673201,263.847862 197.564397,267.41727 M391.377274,134.62099 C390.566149,134.825147 389.763517,135.056564 388.968165,135.315243 C394.371826,143.576618 388.405777,153.804438 390.097189,162.744316 C395.085883,159.794041 395.739273,148.318866 403.313619,150.440398 C411.471588,152.725498 407.412321,162.76673 409.881491,168.510376 C413.737522,165.140278 418.239056,168.289863 419.82976,172.287575 C421.552112,176.619693 419.16363,180.618618 419.966868,184.905906 C420.797408,189.342222 423.275678,186.430719 424.649798,183.814849 C426.400665,180.479888 427.931308,175.971481 427.285805,172.157327 C426.500766,167.51746 423.386093,163.204122 421.456257,158.990137 C419.539162,154.802807 417.723382,150.530058 414.948447,146.815256 C409.692815,139.780638 400.564772,133.460872 391.377274,134.62099 M443.633896,233.693875 C440.106683,224.888487 434.886238,216.825817 431.550128,207.950761 C430.574594,205.355489 430.029799,201.21844 427.450214,199.619719 C425.755162,198.569251 423.498935,199.199895 421.629767,198.634678 C419.766059,198.071885 417.801643,196.729419 416.465136,195.345152 C414.019626,192.812278 413.226701,189.335558 410.343171,187.129819 C406.621216,184.282532 403.745573,183.190869 401.975293,178.434082 C400.585399,174.698077 400.582365,174.149823 396.40419,174.983412 C391.842595,175.893938 388.137626,174.779255 384.990799,171.215905 C379.661759,165.18329 379.072677,156.683834 381.688056,149.401441 C382.911114,145.996207 385.039333,142.034236 383.27148,138.468463 C381.629209,135.155917 377.641529,132.778128 375.114725,130.138027 C368.727642,123.465075 363.728634,115.655632 357.739531,108.654333 C356.305957,106.97928 354.840835,105.307862 353.735472,103.387457 C353.034154,102.16797 352.619795,100.070064 350.993297,99.7247547 C348.193489,99.1304591 344.285284,103.971454 342.876583,105.734955 C332.567342,118.63862 339.943305,136.213654 341.198517,150.76087 C341.837954,158.168664 343.274562,167.050384 339.989413,174.025632 C336.893546,180.598626 329.058329,183.879671 322.454664,185.70981 C313.548057,188.178469 303.981994,188.069424 294.918865,186.57066 C290.172235,185.786142 285.6161,184.445493 281.122453,182.747419 C276.525064,181.009968 271.742639,178.020922 267.057282,181.174142 C261.009332,185.245157 262.877893,193.41142 264.205906,199.363463 C266.375985,209.086647 270.164675,218.156166 273.516559,227.496481 C276.331534,235.341667 278.610815,245.184195 272.692693,252.204274 C266.781851,259.215265 256.978578,263.602511 247.854782,263.239027 C228.939239,262.484799 211.672034,248.381033 192.342132,254.150122 C195.973693,255.651309 199.813344,256.533968 203.36179,258.252639 C207.645527,260.326919 211.611367,263.083941 215.770129,265.391456 C223.752768,269.819896 231.763921,274.184728 239.566378,278.929399 C246.61595,283.216082 253.28089,287.912289 260.008924,292.662412 C268.393182,298.581742 272.808568,292.02571 278.187355,285.63143 C289.928958,271.674874 301.106351,256.895028 311.774137,242.104278 C321.048996,229.245443 329.657725,215.820179 336.365132,201.45531 C338.765141,196.315048 342.806208,187.595684 349.82848,188.609803 C356.06268,189.509425 359.698487,197.032322 362.921756,201.635841 C365.170703,200.024397 367.098718,197.869545 370.13513,198.756445 C372.653441,199.491288 374.395207,202.07505 375.50967,204.278972 C376.275902,205.793486 376.79825,210.899218 378.079549,211.66738 C378.990776,212.213817 382.474915,211.039159 384.028004,211.397796 C389.342484,212.626371 391.041783,219.457437 390.987789,224.19908 C390.912561,230.734514 388.181913,237.274188 385.943886,243.326189 C380.927891,256.892605 372.33433,267.495419 362.860481,278.21576 C353.245884,289.094822 343.181134,298.955524 332.336805,308.609646 C329.660758,310.99228 327.010799,313.40157 324.402093,315.857507 C322.262348,317.871206 318.874064,319.966083 317.199639,322.331755 C314.100739,326.708702 322.390963,328.695745 325.475909,330.297496 C338.749367,337.190355 350.980557,346.26775 362.669985,355.523858 C374.724632,365.070147 386.84662,374.65339 398.42988,384.767925 C409.761369,394.662552 420.463736,405.209026 432.396441,414.410611 C444.655538,423.863606 457.50129,432.592057 470.098911,441.587062 C482.709273,450.591155 494.97929,460.064141 507.573878,469.079744 C519.882722,477.889979 533.095513,485.442561 546.04258,493.265332 C552.814901,497.358156 559.623017,501.391006 566.426885,505.431125 C571.928827,508.69763 577.900336,513.774889 584.422707,514.188049 C590.300182,514.560014 595.873712,516.722741 599.386971,510.3327 C602.053311,505.482013 600.948554,498.809061 598.614066,494.096497 C595.76451,488.344977 591.306657,483.056897 587.72545,477.734287 C583.607335,471.61383 579.784671,465.316478 575.719944,459.16452 C571.822659,453.266394 567.490994,447.821411 563.142949,442.263142 C558.734843,436.62733 555.39024,430.27485 551.461408,424.307662 C543.064409,411.551208 534.4302,399.02496 526.468794,385.982565 C508.210888,356.070901 491.859157,325.191764 476.23301,293.84858 C474.856462,291.086711 442.734802,234.184578 443.633896,233.693875 M417.927225,417.594121 C427.740205,451.51198 422.080527,486.002325 420.06879,520.50721 C419.052001,537.953207 418.897299,555.50825 418.445932,572.977873 C418.226316,581.47006 418.241483,589.96891 418.593961,598.457462 C418.771717,602.727788 419.084155,606.983574 419.3881,611.246024 C419.656857,615.014742 418.645529,619.181475 419.121162,622.818128 C419.730265,627.476169 428.97843,628.39033 426.136761,634.368422 C424.230586,638.378857 417.555939,638.991327 413.980192,640.682131 C415.569683,642.523175 418.057053,645.27838 420.708833,645.451641 C423.097315,645.607333 424.94161,643.536082 427.083175,642.752775 C428.98389,642.05731 431.598662,641.382443 432.799274,643.601509 C434.055699,645.924775 431.42394,648.50672 430.382884,650.307175 C433.92223,650.991735 436.370167,648.878684 439.562495,649.072542 C442.921658,649.276699 443.073934,652.581976 445.281627,654.494505 C447.806005,656.681464 452.214111,657.152175 455.326357,658.072394 C458.946998,659.142247 462.585839,660.469568 465.883122,662.327575 C471.77819,665.649208 476.840899,671.923539 479.019471,678.345687 C481.276912,685.001676 477.751519,690.762284 472.500741,694.846628 C470.544211,696.367806 467.739549,698.136153 465.144797,697.315892 C462.179366,696.378105 461.715866,693.964574 458.101899,694.143893 C454.856183,694.304431 451.774877,695.600856 448.512175,695.766847 C443.716404,696.011592 438.924879,695.13802 434.123647,695.322185 C414.750064,696.066115 395.374054,696.2315 376.032625,694.368647 C371.028157,693.887031 366.123183,693.492651 361.189696,693.335142 C357.353686,693.212769 357.032754,690.351548 356.383004,686.760331 C354.812928,678.085797 358.284933,669.546357 356.565614,661.117174 C356.679669,661.673304 353.964188,660.226034 353.63719,659.950998 C351.643047,658.272916 350.976917,655.888464 350.383588,653.411324 C348.801984,646.814098 348.818365,640.092076 349.307345,633.363996 C350.418775,618.092236 353.260444,602.962235 353.027481,587.609902 C352.909786,579.871944 353.143963,572.15216 353.146389,564.417231 C353.148209,557.311734 353.791286,550.299531 353.851347,543.24371 C353.982389,527.773851 355.610706,512.477253 356.065106,497.023751 C352.844872,500.156373 351.137079,504.523628 349.091975,508.432893 C346.576091,513.239357 343.770216,517.995539 340.697403,522.468204 C334.353395,531.70432 325.841128,539.220553 317.023096,546.034657 C300.195124,559.03828 281.912951,569.108591 261.295683,574.623848 C238.976689,580.593459 216.405318,584.624491 193.395928,586.888993 C188.072348,587.413015 182.689314,587.696533 177.353601,587.177963 C173.859755,586.838712 168.180664,584.016262 164.860934,585.448387 C161.088018,587.076187 160.329067,590.990905 155.381626,589.893185 C153.494258,589.473967 152.126811,588.212679 150.474226,587.363339 C148.042669,586.11235 147.946208,586.975624 145.625067,587.134951 C143.036988,587.312452 141.485718,586.020268 139.230098,588.103634 C137.314822,589.873193 137.500465,591.112672 139.250118,592.768945 C141.708975,595.096451 145.645087,595.487196 148.10637,597.917689 C150.50092,600.282149 150.072,603.1882 146.373098,603.223337 C142.650536,603.258474 139.342939,600.609285 135.705918,600.263975 C136.48125,611.023693 139.718472,623.044699 136.128771,633.601472 C134.463446,638.498807 130.88952,641.653844 125.56048,641.619918 C116.642953,641.562973 108.820476,633.35915 103.450183,626.969109 C100.481112,623.436655 98.0744291,619.468021 95.2078862,615.848331 C92.2770357,612.148069 89.1338487,608.427209 87.4557836,603.952121 C85.6709436,599.190487 86.1920781,594.413102 87.1900597,589.525461 C88.4252515,583.475883 89.573082,577.365119 91.0661109,571.373094 C93.9605609,559.753737 99.7840413,549.147288 102.723992,537.563068 C103.836029,533.180063 103.822075,528.036771 106.628557,524.278957 C109.600055,520.299419 114.222924,520.044374 118.808179,520.298813 C124.483024,520.613832 130.153622,521.241447 135.799346,521.883601 C139.363566,522.288885 147.175123,524.859925 150.076247,522.668725 C151.074835,521.914497 151.076655,519.937752 152.244506,519.255615 C153.370496,518.59771 155.18931,519.070238 156.419648,519.161715 C162.514919,519.613646 168.662971,520.163112 174.770376,520.341219 C197.470362,521.005182 221.42374,517.467276 241.690956,506.922013 C251.09625,502.028314 258.260484,494.32428 265.819664,487.047946 C273.252655,479.893379 279.731345,472.191769 281.730948,461.805227 C283.557042,452.321942 282.866039,440.980651 279.833267,431.802086 C276.879362,422.860392 266.394186,417.444487 258.763418,413.036038 C248.180567,406.922245 236.946752,401.855285 225.545495,397.466221 C223.735781,396.769545 221.535975,395.882645 219.545472,396.238859 C217.105422,396.675645 215.465578,398.789907 213.246358,399.723454 C210.606712,400.83329 207.36949,400.838743 204.584848,401.486955 C201.884535,402.11457 199.253382,402.978449 196.502714,403.393426 C187.841811,404.700149 175.670683,403.656951 168.513122,398.124732 C156.812774,389.08308 163.882366,376.285431 167.640723,365.280361 C163.666996,365.145873 160.35758,366.075179 156.564644,364.374682 C152.78566,362.680243 149.83115,359.679686 148.10819,355.921872 C144.973497,349.084142 146.784424,341.22684 147.708998,334.096505 C148.126997,330.873012 148.604451,327.674357 149.834183,324.645933 C150.786664,322.300859 152.351281,320.066041 152.928836,317.585872 C153.565239,314.854293 152.74016,314.694966 150.461486,313.388848 C146.948833,311.37515 144.421422,309.058548 142.271363,305.524277 C138.060427,298.601127 137.955472,291.044305 141.406244,283.761307 C142.803418,280.813456 146.135281,276.76122 145.756109,273.318425 C145.430324,270.35664 142.077834,268.050338 140.103711,266.110547 C134.00844,260.122156 127.526716,254.592966 120.767135,249.368496 C117.607568,246.926493 114.127676,244.710455 111.256886,241.93647 C109.152935,239.904597 107.015616,235.484032 104.13876,234.41539 C101.25887,233.345537 99.341168,236.562366 97.3348913,238.285884 C94.2074779,240.972633 91.2111064,244.064666 87.8034088,246.393989 C81.6911508,250.571627 74.1125575,249.790137 67.2104076,248.455547 C60.0000665,247.060982 53.3126798,244.605651 47.1652346,240.554627 C44.7227581,238.945001 41.8701687,235.676072 38.8628771,235.414364 C35.6505291,235.135087 32.1609302,238.32829 29.8652692,240.24506 C23.8719196,245.250228 22.0725194,253.023929 18.5817072,259.747768 C14.6838156,267.256732 13.0281975,275.050424 14.0886667,283.491723 C15.0429676,291.086106 17.9677514,296.823693 22.3194364,302.958083 C23.2185299,304.227246 25.3255147,306.623814 23.7857717,308.026861 C21.9020435,309.74432 18.0417658,306.30092 16.7768469,305.18866 C4.21198569,294.138156 -2.92919441,277.486976 1.14948657,260.817621 C3.33897931,251.867445 7.62211001,243.586685 12.5956377,235.885681 C14.7105093,232.610089 16.7738135,229.334496 20.4520885,227.66429 C24.6387578,225.762665 29.382962,225.989236 33.8553756,225.533065 C30.761936,210.390947 29.7936815,193.914239 39.299077,180.717364 C46.5931393,170.590107 61.5307094,161.728985 73.3693797,169.941289 C72.8840391,158.777499 71.2927286,148.176502 74.2636197,137.185366 C75.595273,132.259559 77.4189402,127.466423 79.6606071,122.88229 C81.8567733,118.389633 84.8895453,114.580326 86.6640718,109.903505 C93.6638965,91.4579279 107.094484,74.9806141 121.439938,61.7419386 C135.941309,48.359687 150.169675,32.0338247 168.435468,23.6615877 C187.492366,14.9258671 206.899316,7.0758347 227.560872,3.10659468 C249.006252,-1.01349101 271.049209,-1.859196 292.652932,2.04158796 C311.590921,5.46136207 329.117783,16.9595574 343.448071,29.355557 C359.800409,43.5005182 370.356567,60.5533475 378.707458,80.3062535 C380.542046,84.6450351 382.311112,89.0213767 384.560666,93.1681178 C387.057136,97.7692134 390.263418,102.04802 392.099218,106.985338 C393.73603,111.388335 394.01146,116.164508 391.095777,120.098612 C389.045819,122.864721 384.840343,123.489307 383.047616,126.019152 C382.142456,127.29498 382.233458,128.508409 384.222747,128.888855 C386.276951,129.280811 387.256126,126.990259 388.733381,126.071252 C392.408623,123.783123 397.595701,125.732606 401.312196,127.03206 C410.124768,130.113188 417.023278,135.646619 422.29711,143.317333 C427.344045,150.657883 430.695929,158.997406 434.027792,167.206682 C436.13053,172.385716 438.131953,177.530825 439.289491,183.017609 C439.725084,185.082195 440.332366,190.678024 437.070271,188.225722 C435.747111,187.231594 433.856709,194.775695 434.213435,195.977008 C435.454087,200.155251 439.877966,204.072392 442.481212,207.454606 C448.603177,215.407019 452.702485,224.315395 457.021409,233.308583 C466.374529,252.784636 476.790545,271.691837 486.797661,290.831061 C507.176506,329.806187 529.447572,367.284367 552.807621,404.537793 C564.381781,422.99488 576.313879,441.136949 588.686424,459.070014 C594.145899,466.98305 599.621755,474.900933 604.962321,482.894541 C609.500862,489.687442 613.979949,497.251534 612.812098,505.729787 C611.743136,513.492584 607.13058,519.728144 599.672715,522.267076 C595.676542,523.627716 590.932338,525.196147 586.654667,524.778141 C581.977804,524.321364 577.851196,521.192376 573.952697,518.843061 C556.036956,508.046389 538.118788,497.260016 520.192127,486.482729 C500.143314,474.430222 481.807146,460.11927 462.67866,446.718238 C452.946368,439.899893 442.910131,433.754598 432.76894,427.582648 C430.485412,426.19293 420.123997,416.234693 417.927225,417.594121" id="react-path-87"></path><path d="M244.330497,451.906518 C239.433506,459.117314 234.284061,465.89339 227.390557,471.364106 C220.129019,477.126841 212.534729,481.796157 204.427015,486.267982 C190.127801,494.154338 170.961403,501.137538 154.353,497.562847 C149.629989,496.546496 142.074023,492.414258 146.180195,486.51364 C148.243623,483.548881 152.67099,484.321982 155.805064,484.485152 C160.853527,484.748874 165.269336,485.036077 170.106711,483.337542 C178.995511,480.215032 187.946359,477.270142 196.625895,473.5949 C205.032903,470.034058 212.406373,465.150996 220.119286,460.354035 C227.352841,455.854513 232.870929,450.469899 239.225459,445.031095 C240.965868,443.54149 243.958204,440.934982 245.604323,443.831704 C246.7942,445.924617 244.982618,449.859967 244.330497,451.906518" id="react-path-88"></path><path d="M428.327568,108.546523 C426.745213,111.294381 423.229048,116.62674 419.38989,114.326448 C414.492785,111.392095 420.840743,102.025079 422.034634,98.4949497 C427.236801,83.1148406 427.601578,66.6377549 425.050941,50.7329261 C423.782187,42.8255841 421.484745,35.1039514 420.618755,27.1300695 C420.450451,25.580668 419.674658,21.6076337 421.618652,20.70079 C423.953473,19.6118517 426.294379,23.3895098 427.055795,25.0502451 C429.999422,31.4717548 431.135723,39.906046 432.711747,46.7752205 C434.81709,55.9464215 436.209394,65.3299592 436.228877,74.7612586 C436.250472,86.1533534 434.074644,98.5642102 428.327568,108.546523 Z" id="react-path-89" transform="translate(426.894289, 67.697449) rotate(-20.000000) translate(-426.894289, -67.697449) "></path><path d="M451.419397,55.3741323 C450.948882,58.1982619 450.736314,66.2713372 446.21131,65.3471748 C441.081178,64.2994646 443.933785,51.7572408 443.73908,48.0885437 C443.635781,46.1542064 442.524192,37.3961624 445.087347,36.5106989 C450.42454,34.6676141 451.217212,52.8900086 451.419397,55.3741323" id="react-path-90" transform="translate(447.270566, 50.900228) rotate(-20.000000) translate(-447.270566, -50.900228) "></path><path d="M208.947763,433.514962 C204.032192,437.993587 198.325069,437.730717 192.119788,437.304473 C188.968859,437.088281 181.671908,435.222392 186.742733,431.314343 C189.391835,429.272798 210.174517,427.868775 208.947763,433.514962" id="react-path-91"></path><path d="M591.999949,515.523899 C592.349543,514.828797 595.299444,511.492682 595.935315,512.842072 C596.535469,514.114229 592.778688,515.486225 591.999949,515.523899" id="react-path-92"></path><path d="M200.999949,267.915832 C200.395091,269.162759 197.87021,268.074269 196.999949,268.263174 C198.181821,265.731996 199.587035,266.274337 200.999949,267.915832" id="react-path-93"></path><path d="M390.999949,135.523899 C390.737058,136.523484 390.474671,137.523692 390.212791,138.523899 C389.808847,137.774522 389.404398,137.025767 388.999949,136.276389 C389.666279,136.026182 390.33362,135.774729 390.999949,135.523899" id="react-path-94"></path><path d="M395.827803,324.458653 C402.136764,325.095373 408.466932,325.417378 414.80134,325.611796 C420.147569,325.775837 422.34386,324.764862 423.02668,319.208145 C423.835521,312.619797 424.112405,305.972515 424.921247,299.382344 C425.2878,296.388303 428.192358,290.404474 424.694044,288.801738 C421.762222,287.459037 417.188482,289.382563 414.117915,289.608574 C410.697152,289.861318 405.534503,288.817535 402.511194,290.84556 C399.278253,293.013931 399.981672,300.605964 399.430933,304.169286 C398.380954,310.961774 397.115284,317.708694 395.827803,324.458653 M392.818428,292.461662 C387.100193,292.893635 381.362571,293.234474 375.660694,293.843854 C373.123296,294.115432 367.986699,295.370645 365.847965,293.524279 C360.826485,289.190575 379.592208,287.669859 381.721248,287.327805 C385.308625,286.751841 391.448548,287.516755 393.74905,284.129625 C396.024106,280.780163 395.449132,275.151147 396.037435,271.262174 C396.92201,265.40897 397.934425,259.564271 398.525152,253.67279 C398.723272,251.692762 398.440329,245.151803 400.531199,244.180319 C405.336989,241.946332 403.827152,264.967276 403.747782,266.695168 C403.612672,269.666122 403.464233,272.65105 403.050422,275.597094 C402.816554,277.257547 401.996202,279.503685 402.502106,281.172037 C403.951356,285.955334 412.18336,283.196417 415.932506,282.814871 C420.134845,282.386543 426.624357,284.014796 428.015443,278.829905 C429.763388,272.313855 429.508921,264.913811 430.1566,258.210026 C430.335939,256.355762 430.804279,242.510145 434.2208,243.583091 C438.035986,244.781801 436.546749,256.352117 436.512214,259.330969 C436.472832,262.69319 436.486162,266.056625 436.257747,269.412771 C436.053568,272.427469 435.204133,276.123238 435.83303,279.109988 C436.936326,284.34713 443.145318,281.562089 444.947186,285.7275 C446.659385,289.686949 437.324691,286.58294 435.581592,287.94326 C432.978759,289.974323 433.605233,298.460072 433.233226,301.431026 C432.417115,307.957404 430.84972,314.73531 430.34018,321.242246 C429.938486,326.378533 434.06812,325.696854 438.269854,325.325029 C441.87359,325.006062 445.832974,324.150014 449.444586,324.630592 C452.347326,325.01639 456.401833,327.689641 452.17647,329.469176 C445.57063,332.251787 432.120237,326.566876 428.801261,335.017994 C428.175394,336.612224 425.262353,355.100185 421.601665,345.973463 C420.071834,342.158612 423.817951,336.173568 419.823426,333.250611 C418.438399,332.236598 416.374794,332.415828 414.768017,332.30343 C410.811056,332.027599 406.828649,331.933427 402.864418,331.851407 C398.911093,331.769994 395.358856,330.974095 393.832055,335.304154 C392.642725,338.677918 392.774806,342.453277 391.824796,345.905416 C391.112288,348.493609 388.771799,353.024162 386.344669,348.790097 C384.750616,346.009309 385.970845,341.14946 386.285899,338.125649 C386.442821,336.611616 387.345572,333.478445 386.196836,332.206828 C384.963883,330.841647 381.66369,331.580437 380.104171,331.703771 C375.600713,332.060407 367.214816,334.22817 363.768001,330.144172 C360.884649,326.727271 366.879162,326.661655 369.236011,326.430783 C371.663746,326.192621 374.092693,325.972685 376.519217,325.717511 C379.189908,325.436212 382.726392,325.81229 385.240162,324.975077 C389.461889,323.568582 389.16077,317.828991 389.43826,314.105881 C389.980517,306.832816 391.616981,299.649062 392.818428,292.461662" id="react-path-95"></path><path d="M466.999949,307.994763 C466.659269,312.194082 466.203876,316.901857 464.848072,320.892454 C463.821996,323.909216 461.750822,324.825409 461.044674,320.98468 C460.597351,318.550398 463.571818,304.831774 466.999949,307.994763" id="react-path-96"></path><path d="M200.42766,280.345645 C198.743881,279.137048 190.769138,272.777942 196.533104,272.526409 C199.476446,272.397848 205.817246,277.239067 205.999141,279.924561 C206.045238,280.602767 204.595058,280.95367 204.67417,281.609517 C204.824296,282.858483 206.673151,283.45036 207.268671,284.442825 C208.58243,286.633329 208.037366,290.959683 206.341129,293.0415 C202.472737,297.789558 198.177638,289.751707 201.17206,288.174817 C200.504903,288.526341 191.550914,283.97454 191.214532,282.946674 C189.373153,277.314216 199.975413,282.620614 200.42766,280.345645" id="react-path-97"></path><path d="M214.484385,302.511657 C212.438995,302.575656 208.330952,302.434184 206.799291,300.973425 C203.950865,298.259063 209.506039,297.898646 211.13116,296.634376 C213.409305,294.862603 213.856362,289.100409 217.432223,292.665851 C220.978914,296.202661 217.859635,300.316589 214.484385,302.511657" id="react-path-98"></path><path d="M184.999949,287.550322 C188.697843,287.008293 196.925173,294.979461 192.932481,295.509545 C190.290457,295.86047 185.576626,289.680327 184.999949,287.550322" id="react-path-99"></path></g></g></g></svg>